# xmcd
#
# Track frame offsets:
#	150
#	11933
#	24841
#	34547
#	45092
#	54021
#	63890
#	76049
#	86069
#	97161
#	108944
#	120508
#
# Disc length: 1737 seconds
#
# Revision: 1
# Processed by: cddbd v1.5.2PL0 Copyright (c) Steve Scherf et al.
# Submitted via: audiograbber 1.83.01
#
DISCID=7c06c70c
DTITLE=George Jones - Country and Western Hits
DYEAR=1961
DGENRE=Country
TTITLE0=Heartaches By The Number
TTITLE1=I Love You Because
TTITLE2=If You Got The Money I Got The Time
TTITLE3=Talk To Me Lonesome Heart
TTITLE4=Poor Man's Riches
TTITLE5=If You Want Me
TTITLE6=Oh, Lonesome Me
TTITLE7=I Walk The Line
TTITLE8=Life To Go
TTITLE9=Window Up Above
TTITLE10=Just One More
TTITLE11=It's Been So Long Darling
EXTD=
EXTT0=
EXTT1=
EXTT2=
EXTT3=
EXTT4=
EXTT5=
EXTT6=
EXTT7=
EXTT8=
EXTT9=
EXTT10=
EXTT11=
PLAYORDER=
